<?xml version="1.0" encoding="UTF-8" standalone="no"?>
<svg
   xmlns:dc="http://purl.org/dc/elements/1.1/"
   xmlns:cc="http://creativecommons.org/ns#"
   xmlns:rdf="http://www.w3.org/1999/02/22-rdf-syntax-ns#"
   xmlns:svg="http://www.w3.org/2000/svg"
   xmlns="http://www.w3.org/2000/svg"
   xmlns:sodipodi="http://sodipodi.sourceforge.net/DTD/sodipodi-0.dtd"
   xmlns:inkscape="http://www.inkscape.org/namespaces/inkscape"
   version="1.1"
   id="mdi-language-markdown-outline"
   width="24"
   height="24"
   viewBox="0 0 24 24"
   sodipodi:docname="Logo Markdown.svg"
   inkscape:version="1.0.2-2 (e86c870879, 2021-01-15)">
  <metadata
     id="metadata9">
    <rdf:RDF>
      <cc:Work
         rdf:about="">
        <dc:format>image/svg+xml</dc:format>
        <dc:type
           rdf:resource="http://purl.org/dc/dcmitype/StillImage" />
      </cc:Work>
    </rdf:RDF>
  </metadata>
  <defs
     id="defs7" />
  <sodipodi:namedview
     pagecolor="#ffffff"
     bordercolor="#666666"
     borderopacity="1"
     objecttolerance="10"
     gridtolerance="10"
     guidetolerance="10"
     inkscape:pageopacity="0"
     inkscape:pageshadow="2"
     inkscape:window-width="1920"
     inkscape:window-height="1001"
     id="namedview5"
     showgrid="false"
     inkscape:zoom="34.583333"
     inkscape:cx="12"
     inkscape:cy="12"
     inkscape:window-x="-9"
     inkscape:window-y="-9"
     inkscape:window-maximized="1"
     inkscape:current-layer="mdi-language-markdown-outline" />
  <rect
     style="fill:#ffffff;stroke-width:16.1197"
     id="rect834"
     width="18.766266"
     height="10.612048"
     x="2.6024096"
     y="6.6216869" />
  <path
     d="M20.56 18H3.44C2.65 18 2 17.37 2 16.59V7.41C2 6.63 2.65 6 3.44 6H20.56C21.35 6 22 6.63 22 7.41V16.59C22 17.37 21.35 18 20.56 18M3.44 6.94C3.18 6.94 2.96 7.15 2.96 7.41V16.6C2.96 16.85 3.18 17.06 3.44 17.06H20.56C20.82 17.06 21.04 16.85 21.04 16.6V7.41C21.04 7.15 20.82 6.94 20.56 6.94H3.44M4.89 15.19V8.81H6.81L8.73 11.16L10.65 8.81H12.58V15.19H10.65V11.53L8.73 13.88L6.81 11.53V15.19H4.89M16.9 15.19L14 12.09H15.94V8.81H17.86V12.09H19.79L16.9 15.19"
     id="path2" />
</svg>
